<?xml version="1.0" encoding="utf-8"?>
<!-- Generator: Adobe Illustrator 26.5.0, SVG Export Plug-In . SVG Version: 6.00 Build 0)  -->
<svg version="1.1" id="Layer_1" xmlns="http://www.w3.org/2000/svg" xmlns:xlink="http://www.w3.org/1999/xlink" x="0px" y="0px"
	 viewBox="0 0 1034 335.6" style="enable-background:new 0 0 1034 335.6;" xml:space="preserve">
<style type="text/css">
	.st0{fill:#F79624;}
	.st1{fill:#FFFFFF;}
</style>
<g>
	<g>
		<g>
			<path class="st0" d="M101.4,140.8c0-8.9-0.2-17.2-0.4-24.8c-0.3-10.5,8.1-19.2,18.6-19.2l0,0c9.5,0,17.5,7.2,18.5,16.6l0.2,2h0.8
				c5.9-8.7,18-21.7,41.7-21.7c17.7,0,31.8,9,37.7,23.4h0.6c5.1-7,11.3-12.7,17.7-16.6c7.6-4.5,16.1-6.8,26.2-6.8
				c26.5,0,46.5,18.6,46.5,59.7V216c0,10.3-8.3,18.6-18.6,18.6h-4.5c-10.3,0-18.6-8.3-18.6-18.6v-56.3c0-20-6.5-31.5-20.3-31.5
				c-9.9,0-16.9,6.8-19.7,14.9c-1.1,3.1-1.7,7.6-1.7,11V216c0,10.3-8.3,18.6-18.6,18.6H203c-10.3,0-18.6-8.3-18.6-18.6v-58.6
				c0-17.5-6.2-29.3-19.7-29.3c-11,0-17.5,8.4-20,15.5c-1.4,3.4-1.7,7.3-1.7,10.7V216c0,10.3-8.3,18.6-18.6,18.6H120
				c-10.3,0-18.6-8.3-18.6-18.6V140.8L101.4,140.8z"/>
		</g>
	</g>
	<g>
		<g>
			<path class="st1" d="M725.4,234.3c-6.8,0-12.6-4.8-13.8-11.5l-0.4-2.3h-0.8c-9,11-23,16.9-39.3,16.9c-27.8,0-44.4-20.2-44.4-42.1
				c0-35.7,32-52.8,80.6-52.5v-2c0-7.3-3.9-17.7-25-17.7c-8.3,0-16.9,1.7-24.4,4.2c-7.6,2.6-15.8-1.7-18-9.4v-0.2
				c-2-7.1,1.8-14.6,8.8-17.1c10.3-3.6,24.3-6.7,41.2-6.7c45.8,0,60.4,27,60.4,59.3V201c0,6.6,0.1,13,0.5,18.7c0.4,8-6,14.7-14,14.7
				L725.4,234.3z M708.7,184.3c0-8.7-7.8-15.2-16.4-13.9c-14,2.2-23.5,8.4-23.5,20.6c0,11,7.3,16.3,16.9,16.3
				c10.3,0,18.8-6.5,21.9-14.8c0.2-0.6,0.4-1.2,0.5-1.9C708.5,188.6,708.7,186.4,708.7,184.3L708.7,184.3z"/>
			<path class="st1" d="M776.9,143c0-9.5-0.2-18.3-0.4-26.4c-0.3-10.8,8.3-19.7,19.1-19.7l0,0c9.8,0,18,7.4,19,17.2l0.2,1.9h0.6
				c10.1-14.6,25.8-22.2,45.8-22.2c30.1,0,57,26.1,57,69.9c0,50-31.8,73.6-62.4,73.6c-16.6,0-29.5-6.7-35.7-15.7h-0.6v49.2
				c0,10.6-8.6,19.1-19.1,19.1H796c-10.6,0-19.1-8.6-19.1-19.1V143L776.9,143z M819.6,175.3c0,3.4,0.3,6.5,0.8,9
				c2.8,11.5,12.6,20.2,25,20.2c18.5,0,29.5-15.4,29.5-38.8c0-21.9-9.8-38.5-28.9-38.5c-12.1,0-22.8,9-25.6,21.6
				c-0.6,2.2-0.8,5.1-0.8,7.6V175.3L819.6,175.3z"/>
			<path class="st1" d="M933.4,214c2.1-8.4,10.8-13.3,19-10.6c7.1,2.3,15.2,4,22.1,4c12.9,0,18.3-4.5,18.3-11.5s-4.2-10.4-20.2-15.7
				c-28.4-9.6-39.3-25-39-41.3c0-25.6,21.9-44.9,55.9-44.9c8.8,0,17.2,1.1,24.3,2.8c8.2,2,13.2,10.1,11.1,18.3l0,0
				c-2.1,8.1-10.4,12.9-18.5,10.6c-4.8-1.3-10.1-2.2-15.5-2.2c-10.4,0-16.3,4.2-16.3,11.2c0,6.5,5.3,9.8,22.2,15.7
				c26.1,9,37.1,22.2,37.4,42.4c0,25.6-20.2,44.4-59.6,44.4c-11.5,0-22.2-1.6-31.1-4.2c-7.6-2.2-12.1-10.2-10.2-17.9L933.4,214z"/>
		</g>
	</g>
	<path class="st0" d="M0,167.6c0-8.3,5.4-15.8,13.5-18C30,145.1,32,133.1,32,122.8c0-10.5-1.3-21.5-2.5-32.8s-2.1-22.7-2.1-33.2
		C27.3,17.2,52.2,0,91.3,0H106v35.8h-7.6c-18.9,0-25.7,11.4-25.7,29.9c0,7.6,1.3,15.1,2.1,24c0.8,8.4,2.1,18.1,2.1,28.6
		c0.4,32-12.6,43.7-35.8,48.8v0.8c23.1,5.1,36.2,17.2,35.8,49.2c0,10.9-1.3,20.6-2.1,29.4c-0.8,8.4-2.1,16.4-2.1,23.5
		c0,18.5,6.3,30.3,25.7,30.3h7.6v35.3H90.8c-37.4,0-63.5-15.1-63.5-57.2c0-10.5,0.8-21.9,2.1-33.2s2.5-22.3,2.5-32.8
		c0-9.6-2-22.1-18.7-26.8C5.3,183.4,0,175.9,0,167.6L0,167.6z"/>
	<g>
		<path class="st1" d="M562.3,93.8c-10.1,0-18.5,2.2-26.1,6.7c-6.5,3.9-12.6,9.6-17.7,16.6h-0.6c-5.9-14.3-20-23.3-37.6-23.3
			c-23.6,0-35.7,12.9-41.6,21.6h-0.8l-0.2-2c-1-9.4-9-16.6-18.4-16.6c-10.5,0-18.9,8.7-18.5,19.1c0.2,7.6,0.4,15.8,0.4,24.7v2.8
			c9,4.4,14.9,13.7,14.9,24.1c0,10.4-6,19.7-14.9,24.1v24c0,10.2,8.3,18.5,18.5,18.5h4.5c10.2,0,18.5-8.3,18.5-18.5v-61.5
			c0-3.4,0.3-7.3,1.7-10.7c2.5-7,9-15.4,20-15.4c13.5,0,19.7,11.8,19.7,29.2v58.4c0,10.2,8.3,18.5,18.5,18.5h4.5
			c10.2,0,18.5-8.3,18.5-18.5v-61.8c0-3.4,0.6-7.9,1.7-11c2.8-8.1,9.8-14.9,19.7-14.9c13.8,0,20.2,11.5,20.2,31.5v56.2
			c0,10.2,8.3,18.5,18.5,18.5h4.5c10.2,0,18.5-8.3,18.5-18.5v-62.4C608.6,112.4,588.7,93.8,562.3,93.8z"/>
		<path class="st0" d="M401,153c-1.9-1.6-4.1-2.7-6.6-3.4c-16.2-4.6-18.5-16.5-18.5-26.8c0-10.5,1.3-21.4,2.5-32.8
			c1.3-11.3,2.5-22.7,2.5-33.2C381,17.2,356.2,0,316.7,0H302v35.8h7.6c18.9,0.4,25.7,11.4,25.7,29.9c0,7.6-0.8,15.1-2.1,24
			c-0.8,8.4-2.1,18.1-2.1,28.6c-0.4,32,12.6,43.7,36.2,48.8v0.8c-23.5,5.1-36.6,17.2-36.2,49.2c0,10.9,1.3,20.6,2.1,29.4
			c1.3,8.4,2.1,16.4,2.1,23.5c0,18.5-6.3,29.9-25.7,30.3H302v35.3h15.1c37.9,0,63.9-15.1,63.9-57.2c0-10.5-1.3-21.9-2.5-33.2
			c-1.3-11.4-2.5-22.3-2.5-32.8c0-9.6,2.2-22.1,18.7-26.7c2.4-0.7,4.5-1.8,6.4-3.4c4.3-3.5,6.9-8.9,6.9-14.7l0,0
			C407.9,161.9,405.3,156.5,401,153z"/>
	</g>
</g>
</svg>
