<?xml version="1.0" encoding="utf-8"?>
<!-- Generator: Adobe Illustrator 26.5.0, SVG Export Plug-In . SVG Version: 6.00 Build 0)  -->
<svg version="1.1" id="Layer_1" xmlns="http://www.w3.org/2000/svg" xmlns:xlink="http://www.w3.org/1999/xlink" x="0px" y="0px"
	 viewBox="0 0 48 48" style="enable-background:new 0 0 48 48;" xml:space="preserve">
<style type="text/css">
	.st0{fill:#F79624;}
</style>
<g>
	<g>
		<g>
			<path class="st0" d="M11.93,20.83c0-1.05-0.02-2.02-0.04-2.91c-0.04-1.23,0.95-2.25,2.19-2.25l0,0c1.12,0,2.06,0.84,2.17,1.96
				l0.02,0.23h0.1c0.7-1.03,2.12-2.55,4.9-2.55c2.09,0,3.74,1.06,4.44,2.75h0.07c0.6-0.83,1.32-1.49,2.09-1.95
				c0.89-0.53,1.89-0.8,3.08-0.8c3.11,0,5.47,2.19,5.47,7.02v7.36c0,1.21-0.98,2.19-2.19,2.19H33.7c-1.21,0-2.19-0.98-2.19-2.19
				v-6.63c0-2.35-0.76-3.71-2.39-3.71c-1.16,0-1.99,0.8-2.32,1.76c-0.13,0.36-0.2,0.9-0.2,1.29v7.29c0,1.21-0.98,2.19-2.19,2.19
				h-0.53c-1.21,0-2.19-0.98-2.19-2.19v-6.89c0-2.05-0.73-3.45-2.32-3.45c-1.29,0-2.05,0.99-2.35,1.82c-0.17,0.4-0.2,0.86-0.2,1.26
				v7.26c0,1.21-0.98,2.19-2.19,2.19h-0.53c-1.21,0-2.19-0.98-2.19-2.19L11.93,20.83L11.93,20.83z"/>
		</g>
	</g>
	<path class="st0" d="M0,23.98c0-0.98,0.64-1.86,1.59-2.12c1.94-0.53,2.17-1.94,2.17-3.15c0-1.24-0.15-2.52-0.3-3.86
		s-0.25-2.67-0.25-3.91c0-4.65,2.92-6.68,7.52-6.68h1.73v4.21h-0.89c-2.23,0-3.02,1.34-3.02,3.51c0,0.89,0.15,1.78,0.25,2.82
		c0.1,0.99,0.25,2.13,0.25,3.37c0.05,3.76-1.48,5.15-4.21,5.74V24c2.72,0.59,4.26,2.03,4.21,5.79c0,1.29-0.15,2.43-0.25,3.46
		c-0.1,0.99-0.25,1.93-0.25,2.77c0,2.18,0.74,3.56,3.02,3.56h0.89v4.16h-1.78c-4.4,0-7.47-1.78-7.47-6.73c0-1.24,0.1-2.57,0.25-3.91
		c0.15-1.34,0.3-2.62,0.3-3.86c0-1.14-0.23-2.6-2.2-3.15C0.63,25.83,0,24.95,0,23.98L0,23.98z"/>
	<path class="st0" d="M47.19,22.26c-0.22-0.18-0.48-0.32-0.78-0.4c-1.91-0.54-2.17-1.94-2.17-3.15c0-1.24,0.15-2.52,0.3-3.86
		c0.15-1.34,0.3-2.67,0.3-3.91c0-4.65-2.92-6.68-7.57-6.68h-1.73v4.21h0.89c2.23,0.05,3.02,1.34,3.02,3.51
		c0,0.89-0.1,1.78-0.25,2.82c-0.1,0.99-0.25,2.13-0.25,3.37c-0.05,3.76,1.48,5.15,4.26,5.74V24c-2.77,0.59-4.31,2.03-4.26,5.79
		c0,1.29,0.15,2.43,0.25,3.46c0.15,0.99,0.25,1.93,0.25,2.77c0,2.18-0.74,3.51-3.02,3.56h-0.89v4.16h1.78
		c4.45,0,7.52-1.78,7.52-6.73c0-1.24-0.15-2.57-0.3-3.91c-0.15-1.34-0.3-2.62-0.3-3.86c0-1.13,0.26-2.59,2.2-3.15
		c0.28-0.08,0.53-0.22,0.75-0.39c0.5-0.41,0.81-1.05,0.81-1.73l0,0C48,23.3,47.69,22.67,47.19,22.26z"/>
</g>
</svg>
